<?xml version="1.0" encoding="UTF-8" standalone="no"?>
<svg
   width="24px"
   height="24px"
   viewBox="-2 -2 24 24"
   preserveAspectRatio="xMinYMin"
   class="jam jam-chevrons-circle-up-right-f"
   version="1.1"
   id="svg4"
   sodipodi:docname="favicon.svg"
   inkscape:version="1.1.2 (0a00cf5339, 2022-02-04)"
   xmlns:inkscape="http://www.inkscape.org/namespaces/inkscape"
   xmlns:sodipodi="http://sodipodi.sourceforge.net/DTD/sodipodi-0.dtd"
   xmlns="http://www.w3.org/2000/svg"
   xmlns:svg="http://www.w3.org/2000/svg">
  <defs
     id="defs8" />
  <sodipodi:namedview
     id="namedview6"
     pagecolor="#ffffff"
     bordercolor="#666666"
     borderopacity="1.0"
     inkscape:pageshadow="2"
     inkscape:pageopacity="0.0"
     inkscape:pagecheckerboard="0"
     showgrid="false"
     inkscape:zoom="32"
     inkscape:cx="12.390625"
     inkscape:cy="11.953125"
     inkscape:window-width="1920"
     inkscape:window-height="1010"
     inkscape:window-x="1200"
     inkscape:window-y="0"
     inkscape:window-maximized="1"
     inkscape:current-layer="svg4" />
  <path
     d="M9 11v3a1 1 0 0 0 2 0v-4a1 1 0 0 0-1-1H6a1 1 0 1 0 0 2h3zm3-3v3a1 1 0 0 0 2 0V7a1 1 0 0 0-1-1H9a1 1 0 1 0 0 2h3zm-2 12C4.477 20 0 15.523 0 10S4.477 0 10 0s10 4.477 10 10-4.477 10-10 10z"
     id="path2"
     style="fill:#000000;fill-opacity:1" />
  <path
     style="fill:#ffffff;fill-opacity:1;stroke:none;stroke-width:0;stroke-miterlimit:4;stroke-dasharray:none;stroke-dashoffset:0;stroke-opacity:1;paint-order:markers stroke fill"
     d="M 12.687325,12.435804 C 12.35774,12.327806 12.063197,12.0277 11.96432,11.699155 11.927437,11.576587 11.917449,11.175209 11.917449,9.8141219 V 8.0848149 L 10.12136,8.0750536 8.3252655,8.0652924 8.154287,7.9811561 C 7.9362087,7.8738423 7.72609,7.6637241 7.6187773,7.4456459 7.4988075,7.2018492 7.4988075,6.7974857 7.6187773,6.5536889 7.7260933,6.3356107 7.9362087,6.1254924 8.154287,6.0181788 l 0.1709785,-0.084136 h 2.4749995 2.475 l 0.170979,0.084137 c 0.218078,0.1073138 0.428197,0.317432 0.535511,0.5355102 l 0.08413,0.170978 v 2.475 2.475 l -0.08414,0.170979 c -0.106964,0.217378 -0.317957,0.428827 -0.530609,0.531771 -0.202559,0.09805 -0.559498,0.125341 -0.76382,0.05839 z"
     id="path1408" />
  <path
     style="fill:#ffffff;fill-opacity:1;stroke:none;stroke-width:0.06875;stroke-miterlimit:4;stroke-dasharray:none;stroke-dashoffset:0;stroke-opacity:1;paint-order:markers stroke fill"
     d="M 9.6873254,15.435804 C 9.3577401,15.327806 9.0631975,15.0277 8.9643196,14.699155 8.9274366,14.576587 8.9174486,14.175209 8.9174486,12.814122 v -1.729307 l -1.7960894,-0.0098 -1.7960937,-0.0098 -0.1709785,-0.08414 C 4.9362088,10.87384 4.7260904,10.663724 4.6187768,10.445646 4.4988075,10.20185 4.4988075,9.7974852 4.6187768,9.5536889 4.7260906,9.3356106 4.9362088,9.1254919 5.154287,9.0181792 l 0.1709785,-0.084137 h 2.475 2.4749995 l 0.170979,0.084139 c 0.218078,0.107316 0.428197,0.3174314 0.535511,0.5355097 l 0.08413,0.1709763 v 2.4749998 2.475 l -0.08414,0.170979 c -0.106964,0.217378 -0.317957,0.428827 -0.530609,0.531771 -0.202559,0.09805 -0.559498,0.125341 -0.7638199,0.05839 z"
     id="path5583" />
</svg>
